<?xml version="1.0"?>
<svg xmlns="http://www.w3.org/2000/svg" id="Layer_5" enable-background="new 0 0 64 64" height="512px" viewBox="0 0 64 64" width="512px" class=""><g><g><g><g><path d="m34.84 52.78c.76 2.09 2 3.94 3.59 5.43-.5.13-1.01.24-1.51.34l-.92 3.45h-8l-.92-3.45c-3.79-.7-7.31-2.19-10.38-4.3l-3.08 1.79-5.66-5.66 1.79-3.08c-2.11-3.07-3.6-6.59-4.3-10.38l-3.45-.92v-8l3.45-.92c.1-.5.21-1.01.34-1.51 1.49 1.59 3.34 2.83 5.43 3.59-.13.93-.22 1.88-.22 2.84 0 11.6 9.4 21 21 21 .96 0 1.91-.09 2.84-.22z" fill="#a0d468" data-original="#A0D468" style="fill:#035AA6" class="" data-old_color="#a0d468"/></g><g><path d="m62 28v8l-3.45.92c-.1.5-.21 1.01-.34 1.51-1.49-1.59-3.34-2.83-5.43-3.59.13-.93.22-1.88.22-2.84 0-11.6-9.4-21-21-21-.96 0-1.91.09-2.84.22-.76-2.09-2-3.94-3.59-5.43.5-.13 1.01-.24 1.51-.34l.92-3.45h8l.92 3.45c3.79.7 7.31 2.19 10.38 4.3l3.08-1.79 5.66 5.66-1.79 3.08c2.11 3.07 3.6 6.59 4.3 10.38z" fill="#a0d468" data-original="#A0D468" style="fill:#035AA6" class="" data-old_color="#a0d468"/></g><g><path d="m34.05 46.84c-.03.38-.05.77-.05 1.16 0 1.68.3 3.29.84 4.78-.93.13-1.88.22-2.84.22-11.6 0-21-9.4-21-21 0-.96.09-1.91.22-2.84 1.49.54 3.1.84 4.78.84.39 0 .78-.02 1.16-.05-.1.68-.16 1.35-.16 2.05 0 8.28 6.72 15 15 15 .7 0 1.37-.06 2.05-.16z" fill="#b4dd7f" data-original="#B4DD7F" style="fill:#769AC2" class="" data-old_color="#b4dd7f"/></g><g><path d="m32 17c-.7 0-1.37.06-2.05.16.03-.38.05-.77.05-1.16 0-1.68-.3-3.29-.84-4.78.93-.13 1.88-.22 2.84-.22 11.6 0 21 9.4 21 21 0 .96-.09 1.91-.22 2.84-1.49-.54-3.1-.84-4.78-.84-.39 0-.78.02-1.16.05.1-.68.16-1.35.16-2.05 0-8.28-6.72-15-15-15z" fill="#b4dd7f" data-original="#B4DD7F" style="fill:#769AC2" class="" data-old_color="#b4dd7f"/></g><g><path d="m36.8 39.61c-1.54 2.05-2.53 4.53-2.75 7.23-.68.1-1.35.16-2.05.16-8.28 0-15-6.72-15-15 0-.7.06-1.37.16-2.05 2.7-.22 5.18-1.21 7.23-2.75-.88 1.39-1.39 3.03-1.39 4.8 0 4.97 4.03 9 9 9 1.77 0 3.41-.51 4.8-1.39z" fill="#e6e9ed" data-original="#E6E9ED" style="fill:#E4E8EC" class="active-path" data-old_color="#e6e9ed"/></g><g><path d="m47 32c0 .7-.06 1.37-.16 2.05-2.7.22-5.18 1.21-7.23 2.75.88-1.39 1.39-3.03 1.39-4.8 0-4.97-4.03-9-9-9-1.77 0-3.41.51-4.8 1.39 1.54-2.05 2.53-4.53 2.75-7.23.68-.1 1.35-.16 2.05-.16 8.28 0 15 6.72 15 15z" fill="#e6e9ed" data-original="#E6E9ED" style="fill:#E4E8EC" class="active-path" data-old_color="#e6e9ed"/></g><g><path d="m17.16 29.95c-.38.03-.77.05-1.16.05-1.68 0-3.29-.3-4.78-.84-2.09-.76-3.94-2-5.43-3.59-2.35-2.51-3.79-5.87-3.79-9.57 0-7.73 6.27-14 14-14 3.7 0 7.06 1.44 9.57 3.79 1.59 1.49 2.83 3.34 3.59 5.43.54 1.49.84 3.1.84 4.78 0 .39-.02.78-.05 1.16-.22 2.7-1.21 5.18-2.75 7.23-.8 1.07-1.74 2.01-2.81 2.81-2.05 1.54-4.53 2.53-7.23 2.75z" fill="#ffc729" data-original="#FFC729" style="fill:#FFC729" class=""/></g><g><path d="m58.21 38.43c2.35 2.51 3.79 5.87 3.79 9.57 0 7.73-6.27 14-14 14-3.7 0-7.06-1.44-9.57-3.79-1.59-1.49-2.83-3.34-3.59-5.43-.54-1.49-.84-3.1-.84-4.78 0-.39.02-.78.05-1.16.22-2.7 1.21-5.18 2.75-7.23.8-1.07 1.74-2.01 2.81-2.81 2.05-1.54 4.53-2.53 7.23-2.75.38-.03.77-.05 1.16-.05 1.68 0 3.29.3 4.78.84 2.09.76 3.94 2 5.43 3.59z" fill="#ffc729" data-original="#FFC729" style="fill:#FFC729" class=""/></g><g><path d="m26 16c0 2.4-.85 4.61-2.26 6.34l-1.4 1.4c-1.73 1.41-3.94 2.26-6.34 2.26-5.52 0-10-4.48-10-10 0-2.4.85-4.61 2.26-6.34l1.4-1.4c1.73-1.41 3.94-2.26 6.34-2.26 5.52 0 10 4.48 10 10z" fill="#fcd770" data-original="#FCD770" style="fill:#FCD770" class=""/></g><g><path d="m58 48c0 2.4-.85 4.61-2.26 6.34l-1.4 1.4c-1.73 1.41-3.94 2.26-6.34 2.26-5.52 0-10-4.48-10-10 0-2.4.85-4.61 2.26-6.34l1.4-1.4c1.73-1.41 3.94-2.26 6.34-2.26 5.52 0 10 4.48 10 10z" fill="#fcd770" data-original="#FCD770" style="fill:#FCD770" class=""/></g></g><g><path d="m17 13c.551 0 1 .449 1 1h2c0-1.654-1.346-3-3-3v-2h-2v2h-3v3c0 1.654 1.346 3 3 3h2c.551 0 1 .449 1 1v1h-3c-.551 0-1-.449-1-1h-2c0 1.654 1.346 3 3 3v2h2v-2h3v-3c0-1.654-1.346-3-3-3h-2c-.551 0-1-.449-1-1v-1z" data-original="#000000" class="" style="fill:#000000" data-old_color="#000000"/><path d="m16 27c2.535 0 5.01-.885 6.97-2.491l-1.269-1.547c-1.602 1.314-3.627 2.038-5.701 2.038-4.962 0-9-4.038-9-9 0-2.074.724-4.099 2.038-5.701l-1.547-1.269c-1.606 1.96-2.491 4.435-2.491 6.97 0 6.065 4.935 11 11 11z" data-original="#000000" class="" style="fill:#000000" data-old_color="#000000"/><path d="m16 7c4.962 0 9 4.038 9 9 0 2.074-.724 4.099-2.038 5.701l1.547 1.269c1.606-1.96 2.491-4.435 2.491-6.97 0-6.065-4.935-11-11-11-2.535 0-5.01.885-6.97 2.491l1.269 1.547c1.602-1.314 3.627-2.038 5.701-2.038z" data-original="#000000" class="" style="fill:#000000" data-old_color="#000000"/><path d="m48 57c-4.962 0-9-4.037-9-9 0-2.074.724-4.099 2.038-5.702l-1.547-1.268c-1.606 1.96-2.491 4.435-2.491 6.97 0 6.065 4.935 11 11 11 2.536 0 5.011-.885 6.97-2.491l-1.269-1.547c-1.602 1.314-3.627 2.038-5.701 2.038z" data-original="#000000" class="" style="fill:#000000" data-old_color="#000000"/><path d="m48 37c-2.536 0-5.011.885-6.97 2.491l1.269 1.547c1.602-1.314 3.627-2.038 5.701-2.038 4.962 0 9 4.037 9 9 0 2.074-.724 4.099-2.038 5.702l1.547 1.268c1.606-1.96 2.491-4.435 2.491-6.97 0-6.065-4.935-11-11-11z" data-original="#000000" class="" style="fill:#000000" data-old_color="#000000"/><path d="m51.293 42.293-3.293 3.293-3.293-3.293-1.414 1.414 3.293 3.293h-1.586v2h2v2h-2v2h2v2h2v-2h2v-2h-2v-2h2v-2h-1.586l3.293-3.293z" data-original="#000000" class="" style="fill:#000000" data-old_color="#000000"/><path d="m63 36.77v-9.54l-3.593-.953c-.714-3.444-2.051-6.671-3.981-9.612l1.867-3.214-6.745-6.745-3.214 1.867c-2.94-1.93-6.168-3.267-9.612-3.981l-.952-3.592h-9.54l-.953 3.595c-.15.032-.298.068-.447.102-2.636-2.295-6.069-3.697-9.83-3.697-8.271 0-15 6.729-15 15 0 3.761 1.402 7.194 3.697 9.83-.034.149-.071.297-.102.447l-3.595.953v9.539l3.593.953c.714 3.442 2.051 6.671 3.981 9.611l-1.867 3.214 6.745 6.745 3.214-1.867c2.941 1.931 6.169 3.268 9.612 3.98l.952 3.595h9.539l.953-3.595c.15-.032.298-.069.447-.102 2.636 2.295 6.07 3.697 9.831 3.697 8.271 0 15-6.729 15-15 0-3.761-1.402-7.194-3.697-9.83.034-.149.07-.297.102-.447zm-34.23-33.77h6.461l.881 3.323.623.115c3.609.665 6.971 2.057 9.993 4.139l.522.359 2.972-1.727 4.569 4.569-1.727 2.972.359.522c2.082 3.022 3.474 6.384 4.139 9.993l.115.623 3.323.882v6.461l-3.323.881-.071.382c-1.119-.936-2.375-1.714-3.735-2.294.087-.796.129-1.509.129-2.2 0-12.131-9.869-22-22-22-.691 0-1.404.042-2.199.128-.581-1.36-1.358-2.616-2.295-3.735l.382-.071zm-16.695 27.461c1.253.341 2.565.539 3.925.539.013 0 .026-.002.039-.002-.025.347-.039.678-.039 1.002 0 8.822 7.178 16 16 16 .323 0 .655-.014 1.002-.039 0 .013-.002.026-.002.039 0 1.36.198 2.672.539 3.925-.545.048-1.052.075-1.539.075-11.028 0-20-8.972-20-20 0-.487.026-.994.075-1.539zm21.084 15.475c-.409.038-.798.064-1.159.064-7.72 0-14-6.28-14-14 0-.362.026-.75.064-1.159 1.501-.208 2.928-.636 4.254-1.255-.197.787-.318 1.594-.318 2.414 0 5.514 4.486 10 10 10 .82 0 1.627-.121 2.415-.318-.62 1.325-1.048 2.753-1.256 4.254zm3.013-7.128c-1.262.775-2.699 1.192-4.172 1.192-4.411 0-8-3.589-8-8 0-1.474.417-2.911 1.192-4.172.984-.767 1.869-1.651 2.635-2.635 1.262-.776 2.699-1.193 4.173-1.193 4.411 0 8 3.589 8 8 0 1.474-.417 2.91-1.192 4.172-.984.767-1.869 1.652-2.636 2.636zm-4.172-16.808c-.82 0-1.627.121-2.415.318.619-1.326 1.047-2.753 1.255-4.254.41-.038.798-.064 1.16-.064 7.72 0 14 6.28 14 14 0 .362-.026.75-.064 1.159-1.501.208-2.928.636-4.254 1.255.197-.787.318-1.594.318-2.414 0-5.514-4.486-10-10-10zm0-6c-.324 0-.655.014-1.002.039 0-.013.002-.026.002-.039 0-1.36-.198-2.672-.539-3.925.545-.049 1.052-.075 1.539-.075 11.028 0 20 8.972 20 20 0 .487-.026.994-.075 1.539-1.253-.341-2.565-.539-3.925-.539-.013 0-.026.002-.039.002.025-.347.039-.678.039-1.002 0-8.822-7.178-16-16-16zm-16-13c7.168 0 13 5.832 13 13s-5.832 13-13 13-13-5.832-13-13 5.832-13 13-13zm19.23 58h-6.46l-.881-3.324-.624-.114c-3.607-.663-6.97-2.056-9.993-4.138l-.522-.359-2.972 1.727-4.569-4.569 1.727-2.973-.359-.521c-2.082-3.022-3.474-6.384-4.139-9.992l-.115-.623-3.323-.884v-6.46l3.323-.881.071-.382c1.119.936 2.375 1.714 3.735 2.295-.087.794-.129 1.507-.129 2.198 0 12.131 9.869 22 22 22 .691 0 1.404-.042 2.199-.128.581 1.36 1.358 2.615 2.294 3.734l-.381.07zm12.77 0c-7.168 0-13-5.832-13-13s5.832-13 13-13 13 5.832 13 13-5.832 13-13 13z" data-original="#000000" class="" style="fill:#000000" data-old_color="#000000"/></g></g></g> </svg>
