<?xml version="1.0"?>
<svg xmlns="http://www.w3.org/2000/svg" id="Capa_1" enable-background="new 0 0 512 512" height="512px" viewBox="0 0 512 512" width="512px" class=""><g><g><path d="m10 86h492v80h-492z" fill="#ff5959" data-original="#FF5959" class="" style="fill:#035AA6" data-old_color="#ff5959"/><g fill="#fff"><path d="m10 166h492v300h-492z" transform="matrix(-1 0 0 -1 512 632)" data-original="#FFF" class="active-path" data-old_color="#FFF" style="fill:#FFFFFF"/><path d="m136 126h-50v-55c0-13.807 11.193-25 25-25 13.807 0 25 11.193 25 25z" data-original="#FFF" class="active-path" data-old_color="#FFF" style="fill:#FFFFFF"/><path d="m426 126h-50v-55c0-13.807 11.193-25 25-25 13.807 0 25 11.193 25 25z" data-original="#FFF" class="active-path" data-old_color="#FFF" style="fill:#FFFFFF"/></g><g><path d="m336 116h-160c-5.522 0-10 4.477-10 10s4.478 10 10 10h160c5.522 0 10-4.477 10-10s-4.478-10-10-10z" data-original="#000000" class="" style="fill:#000000"/><path d="m502 76h-66v-5c0-19.299-15.701-35-35-35s-35 15.701-35 35v5h-220v-5c0-19.299-15.701-35-35-35s-35 15.701-35 35v5h-66c-5.522 0-10 4.477-10 10v380c0 2.63 1.069 5.21 2.93 7.07s4.44 2.93 7.07 2.93h492c2.63 0 5.21-1.07 7.069-2.93 1.86-1.86 2.931-4.44 2.931-7.07v-105c0-5.51-4.49-10-10-10s-10 4.49-10 10v95h-472v-280h472v95c0 5.51 4.49 10 10 10 5.52 0 10-4.49 10-10v-185c0-5.523-4.478-10-10-10zm-116-5c0-8.271 6.729-15 15-15s15 6.729 15 15v45h-30zm-290 0c0-8.271 6.729-15 15-15s15 6.729 15 15v45h-30zm396 85h-472v-60h56v30c0 5.523 4.478 10 10 10h50c5.522 0 10-4.477 10-10v-30h220v30c0 5.523 4.478 10 10 10h50c5.522 0 10-4.477 10-10v-30h56z" data-original="#000000" class="" style="fill:#000000"/><circle cx="502" cy="316" r="10" data-original="#000000" class="" style="fill:#000000"/><path d="m212 206v220c0 5.523 4.478 10 10 10s10-4.477 10-10v-220c0-5.523-4.478-10-10-10s-10 4.477-10 10z" data-original="#000000" class="" style="fill:#000000"/><path d="m142.67 401h.086c5.483 0 9.951-4.286 9.998-9.78.033-4.011.144-17.22.261-34.22h8.75c5.522 0 10-4.477 10-10s-4.478-10-10-10h-8.62c.226-38 .383-80.85-.059-86.277-.749-9.223-6.022-16.706-13.437-18.959-3.453-1.051-12.412-2.378-20.878 8.283-8.331 10.494-52.563 92.63-57.58 101.964-1.665 3.099-1.58 6.973.226 9.993s5.064 4.996 8.583 4.996h63.016c-.083 12-.173 23.509-.262 34.052-.046 5.522 4.393 9.948 9.916 9.948zm-55.907-64c17.303-32 39.721-72.488 46.472-82.591.247 9.301.135 44.591-.09 82.591z" data-original="#000000" class="" style="fill:#000000"/><path d="m385.26 378.93c-1.859 1.86-2.93 4.44-2.93 7.07s1.07 5.21 2.93 7.07 4.44 2.93 7.07 2.93 5.21-1.07 7.07-2.93c1.859-1.86 2.93-4.44 2.93-7.07s-1.07-5.21-2.93-7.07-4.44-2.93-7.07-2.93-5.21 1.07-7.07 2.93z" data-original="#000000" class="" style="fill:#000000"/><circle cx="392.33" cy="336" r="10" data-original="#000000" class="" style="fill:#000000"/><circle cx="392.33" cy="286" r="10" data-original="#000000" class="" style="fill:#000000"/><circle cx="392.33" cy="236" r="10" data-original="#000000" class="" style="fill:#000000"/><circle cx="335.67" cy="386" r="10" data-original="#000000" class="" style="fill:#000000"/><circle cx="335.67" cy="336" r="10" data-original="#000000" class="" style="fill:#000000"/><circle cx="335.67" cy="286" r="10" data-original="#000000" class="" style="fill:#000000"/><circle cx="335.67" cy="236" r="10" data-original="#000000" class="" style="fill:#000000"/><circle cx="449" cy="336" r="10" data-original="#000000" class="" style="fill:#000000"/><circle cx="449" cy="286" r="10" data-original="#000000" class="" style="fill:#000000"/><circle cx="449" cy="236" r="10" data-original="#000000" class="" style="fill:#000000"/><circle cx="279" cy="386" r="10" data-original="#000000" class="" style="fill:#000000"/><circle cx="279" cy="336" r="10" data-original="#000000" class="" style="fill:#000000"/><circle cx="279" cy="286" r="10" data-original="#000000" class="" style="fill:#000000"/><circle cx="279" cy="236" r="10" data-original="#000000" class="" style="fill:#000000"/></g></g></g> </svg>
