<?xml version="1.0"?>
<svg xmlns="http://www.w3.org/2000/svg" id="Layer_5" enable-background="new 0 0 64 64" height="512px" viewBox="0 0 64 64" width="512px" class=""><g><g><g><g><path d="m56 52v2c0 1.1-.9 2-2 2h-8c-1.1 0-2-.9-2-2v-2z" fill="#969faa" data-original="#969FAA" class=""/></g><g><path d="m20 52v2c0 1.1-.9 2-2 2h-8c-1.1 0-2-.9-2-2v-2z" fill="#969faa" data-original="#969FAA" class=""/></g><g><path d="m62 12v36c0 2.21-1.79 4-4 4h-2-12-24-12-2c-2.21 0-4-1.79-4-4v-36c0-2.21 1.79-4 4-4h52c2.21 0 4 1.79 4 4z" fill="#ccd1d9" data-original="#CCD1D9" class="" style="fill:#035AA6" data-old_color="#ccd1d9"/></g><g><path d="m58 13v34c0 .55-.45 1-1 1h-50c-.55 0-1-.45-1-1v-34c0-.55.45-1 1-1h50c.55 0 1 .45 1 1z" fill="#e6e9ed" data-original="#E6E9ED" class="" style="fill:#FFFFFF" data-old_color="#e6e9ed"/></g><g><path d="m10 16h32v20h-32z" fill="#69d6f4" data-original="#69D6F4" class="" style="fill:#FFF39D" data-old_color="#69d6f4"/></g><g><path d="m36 40h6v4h-6z" fill="#ff826e" data-original="#FF826E" class="active-path" style="fill:#B4DD7F" data-old_color="#ff826e"/></g><g><path d="m26 40h6v4h-6z" fill="#ff826e" data-original="#FF826E" class="active-path" style="fill:#B4DD7F" data-old_color="#ff826e"/></g><g><circle cx="50" cy="20" fill="#ff826e" r="4" data-original="#FF826E" class="active-path" style="fill:#B4DD7F" data-old_color="#ff826e"/></g><g><circle cx="12" cy="42" fill="#fcd770" r="2" data-original="#FCD770"/></g><g><circle cx="20" cy="42" fill="#fcd770" r="2" data-original="#FCD770"/></g></g><g><path d="m58 7h-52c-2.757 0-5 2.243-5 5v36c0 2.757 2.243 5 5 5h1v1c0 1.654 1.346 3 3 3h8c1.654 0 3-1.346 3-3v-1h22v1c0 1.654 1.346 3 3 3h8c1.654 0 3-1.346 3-3v-1h1c2.757 0 5-2.243 5-5v-36c0-2.757-2.243-5-5-5zm-39 47c0 .551-.449 1-1 1h-8c-.551 0-1-.449-1-1v-1h10zm36 0c0 .551-.449 1-1 1h-8c-.551 0-1-.449-1-1v-1h10zm6-6c0 1.654-1.346 3-3 3h-52c-1.654 0-3-1.346-3-3v-36c0-1.654 1.346-3 3-3h52c1.654 0 3 1.346 3 3z" data-original="#000000" class="" style="fill:#000000"/><path d="m57 11h-50c-1.103 0-2 .897-2 2v34c0 1.103.897 2 2 2h50c1.103 0 2-.897 2-2v-34c0-1.103-.897-2-2-2zm-50 36v-34h50l.001 34z" data-original="#000000" class="" style="fill:#000000"/><path d="m9 37h34v-22h-34zm2-2v-8h5.217c.806 3.179 1.664 6 3.777 6 2.114 0 2.973-2.82 3.779-6h4.442c.807 3.179 1.667 6 3.781 6 2.115 0 2.975-2.821 3.781-6h5.223v8zm7.285-8h3.42c-.459 1.733-1.146 4-1.711 4-.564 0-1.25-2.267-1.709-4zm5.997-2c.459-1.733 1.146-4 1.711-4 .566 0 1.254 2.267 1.713 4zm6.001 2h3.427c-.459 1.733-1.147 4-1.713 4s-1.254-2.267-1.714-4zm10.717-10v8h-4.713c.459-1.733 1.147-4 1.713-4h1v-2h-1c-2.115 0-2.975 2.821-3.781 6h-4.444c-.807-3.179-1.667-6-3.781-6s-2.973 2.82-3.779 6h-4.437c-.806-3.179-1.664-6-3.777-6h-1v2h1c.564 0 1.251 2.267 1.709 4h-4.71v-8z" data-original="#000000" class="" style="fill:#000000"/><path d="m50 15c-2.757 0-5 2.243-5 5s2.243 5 5 5 5-2.243 5-5-2.243-5-5-5zm0 8c-1.654 0-3-1.346-3-3s1.346-3 3-3 3 1.346 3 3-1.346 3-3 3z" data-original="#000000" class="" style="fill:#000000"/><path d="m53 27h2v2h-2z" data-original="#000000" class="" style="fill:#000000"/><path d="m49 27h2v2h-2z" data-original="#000000" class="" style="fill:#000000"/><path d="m45 27h2v2h-2z" data-original="#000000" class="" style="fill:#000000"/><path d="m45 31h2v2h-2z" data-original="#000000" class="" style="fill:#000000"/><path d="m53 31h2v2h-2z" data-original="#000000" class="" style="fill:#000000"/><path d="m49 31h2v2h-2z" data-original="#000000" class="" style="fill:#000000"/><path d="m49 35h2v2h-2z" data-original="#000000" class="" style="fill:#000000"/><path d="m45 35h2v2h-2z" data-original="#000000" class="" style="fill:#000000"/><path d="m53 35h2v2h-2z" data-original="#000000" class="" style="fill:#000000"/><path d="m12 39c-1.654 0-3 1.346-3 3s1.346 3 3 3 3-1.346 3-3-1.346-3-3-3zm0 4c-.551 0-1-.449-1-1s.449-1 1-1 1 .449 1 1-.449 1-1 1z" data-original="#000000" class="" style="fill:#000000"/><path d="m20 39c-1.654 0-3 1.346-3 3s1.346 3 3 3 3-1.346 3-3-1.346-3-3-3zm0 4c-.551 0-1-.449-1-1s.449-1 1-1 1 .449 1 1-.449 1-1 1z" data-original="#000000" class="" style="fill:#000000"/><path d="m25 45h8v-6h-8zm2-4h4v2h-4z" data-original="#000000" class="" style="fill:#000000"/><path d="m35 45h8v-6h-8zm2-4h4v2h-4z" data-original="#000000" class="" style="fill:#000000"/></g></g></g> </svg>
