<?xml version="1.0"?>
<svg xmlns="http://www.w3.org/2000/svg" id="Layer_5" enable-background="new 0 0 64 64" height="512px" viewBox="0 0 64 64" width="512px" class=""><g><g><g><g><path d="m58 32h2c1.1 0 2 .9 2 2v2c0 1.1-.9 2-2 2h-2-4-4-4-4-2c-1.1 0-2-.9-2-2v-2c0-1.1.9-2 2-2h2 4 2.78.44.78 4z" fill="#ffc729" data-original="#FFC729" class="" style="fill:#FCD770" data-old_color="#ffc729"/></g><g><path d="m58 44h2c1.1 0 2 .9 2 2v2c0 1.1-.9 2-2 2h-2-4-4-4l-1.8.01c-.06-.01-.13-.01-.2-.01 1.1 0 2-.9 2-2v-2c0-1.1-.9-2-2-2h2 4 4z" fill="#ffc729" data-original="#FFC729" class="" style="fill:#FCD770" data-old_color="#ffc729"/></g><g><path d="m58 56h2c1.1 0 2 .9 2 2v2c0 1.1-.9 2-2 2h-16c1.1 0 2-.9 2-2v-2c0-1.1-.9-2-2-2h2 4 4z" fill="#ffc729" data-original="#FFC729" class="" style="fill:#FCD770" data-old_color="#ffc729"/></g><g><path d="m30 50h4 4 4 2c.07 0 .14 0 .2.01 1.01.1 1.8.96 1.8 1.99v2c0 1.1-.9 2-2 2h-2-4-4-4-4-2c-1.1 0-2-.9-2-2v-2c0-1.1.9-2 2-2h2z" fill="#ffc729" data-original="#FFC729" class="" style="fill:#FCD770" data-old_color="#ffc729"/></g><g><path d="m34 56h4 4 2c1.1 0 2 .9 2 2v2c0 1.1-.9 2-2 2h-20c-1.1 0-2-.9-2-2v-2c0-1.1.9-2 2-2h2 4z" fill="#fcd770" data-original="#FCD770" class="" style="fill:#B4DD7F" data-old_color="#fcd770"/></g><g><path d="m30 44h4 4 2 2 2c1.1 0 2 .9 2 2v2c0 1.1-.9 2-2 2h-2-4-4-4-4-2c-1.1 0-2-.9-2-2v-2.5c1.4-.36 2.72-.9 3.94-1.61l.06.11z" fill="#fcd770" data-original="#FCD770" class="" style="fill:#B4DD7F" data-old_color="#fcd770"/></g><g><path d="m58 50h2c1.1 0 2 .9 2 2v2c0 1.1-.9 2-2 2h-2-4-4-4-2c1.1 0 2-.9 2-2v-2c0-1.03-.79-1.89-1.8-1.99l1.8-.01h4 4z" fill="#fcd770" data-original="#FCD770" class="" style="fill:#B4DD7F" data-old_color="#fcd770"/></g><g><path d="m58 38h2c1.1 0 2 .9 2 2v2c0 1.1-.9 2-2 2h-2-4-4-4-2-2-2c-1.1 0-2-.9-2-2v-2c0-1.1.9-2 2-2h2 4 4 4z" fill="#fcd770" data-original="#FCD770" class="" style="fill:#B4DD7F" data-old_color="#fcd770"/></g><g><path d="m62 4v11.84c0 6.56-3.65 12.45-9.51 15.39-1.01.5-2.14.77-3.27.77h-.44c-1.13 0-2.26-.27-3.27-.77-5.86-2.94-9.51-8.83-9.51-15.39v-11.84h6.39c.92 0 1.8-.27 2.56-.77 1.2-.81 2.6-1.23 4.05-1.23s2.85.42 4.05 1.23c.76.5 1.64.77 2.56.77z" fill="#8cc152" data-original="#8CC152" class="" style="fill:#035AA6" data-old_color="#8cc152"/></g><g><path d="m58 8v7.84c0 5-2.83 9.57-7.3 11.81-.46.23-.97.35-1.48.35h-.44c-.51 0-1.02-.12-1.48-.35-2.24-1.12-4.06-2.82-5.33-4.87-1.26-2.05-1.97-4.44-1.97-6.94v-7.84h2.39c1.7 0 3.36-.5 4.78-1.45.54-.36 1.18-.55 1.83-.55s1.29.19 1.83.55c1.42.95 3.08 1.45 4.78 1.45z" fill="#b4dd7f" data-original="#B4DD7F" class="active-path" style="fill:#E3E9ED" data-old_color="#b4dd7f"/></g><g><path d="m22 45.5c-1.28.33-2.62.5-4 .5-8.84 0-16-7.16-16-16s7.16-16 16-16 16 7.16 16 16c0 5.95-3.24 11.14-8.06 13.89-1.22.71-2.54 1.25-3.94 1.61z" fill="#ffc729" data-original="#FFC729" class="" style="fill:#FCD770" data-old_color="#ffc729"/></g><g><circle cx="18" cy="30" fill="#fcd770" r="12" data-original="#FCD770" class="" style="fill:#B4DD7F" data-old_color="#fcd770"/></g></g><g><path d="m19 23.142v-2.142h-2v2h-3v4c0 2.206 1.794 4 4 4 1.103 0 2 .897 2 2v2h-2c-1.103 0-2-.897-2-2v-1h-2v1c0 1.859 1.28 3.411 3 3.858v2.142h2v-2h3v-4c0-2.206-1.794-4-4-4-1.103 0-2-.897-2-2v-2h2c1.103 0 2 .897 2 2v1h2v-1c0-1.858-1.28-3.411-3-3.858z" data-original="#000000" class="" style="fill:#000000" data-old_color="#000000"/><path d="m18 17c-7.168 0-13 5.832-13 13s5.832 13 13 13 13-5.832 13-13-5.832-13-13-13zm0 24c-6.065 0-11-4.935-11-11s4.935-11 11-11 11 4.935 11 11-4.935 11-11 11z" data-original="#000000" class="" style="fill:#000000" data-old_color="#000000"/><path d="m51.387 5.723c-1.417-.945-3.356-.945-4.773 0-1.254.835-2.713 1.277-4.219 1.277h-3.395v8.835c0 5.417 3.01 10.288 7.855 12.71.594.298 1.26.455 1.925.455h.44c.665 0 1.331-.157 1.924-.454 4.846-2.423 7.856-7.293 7.856-12.711v-8.835h-3.395c-1.506 0-2.965-.442-4.218-1.277zm5.613 10.112c0 4.655-2.586 8.84-6.75 10.922-.318.159-.674.243-1.03.243h-.44c-.356 0-.712-.084-1.03-.243-4.164-2.082-6.75-6.267-6.75-10.922v-6.835h1.395c1.903 0 3.745-.558 5.328-1.613.759-.506 1.796-.506 2.555 0 1.582 1.055 3.425 1.613 5.327 1.613h1.395z" data-original="#000000" class="" style="fill:#000000" data-old_color="#000000"/><path d="m63 15.835v-12.835h-7.395c-.714 0-1.405-.209-1.999-.605-2.736-1.826-6.477-1.824-9.212 0-.594.396-1.286.605-1.999.605h-7.395v12.835c0 6.19 3.072 11.816 8.138 15.165h-3.138c-1.654 0-3 1.346-3 3v2c0 .771.301 1.468.78 2-.48.532-.78 1.229-.78 2v2c0 .352.072.686.184 1h-8.252c3.705-3.121 6.068-7.788 6.068-13 0-9.374-7.626-17-17-17s-17 7.626-17 17 7.626 17 17 17c1.025 0 2.024-.107 3-.281v1.281c0 .771.301 1.468.78 2-.48.532-.78 1.229-.78 2v2c0 .771.301 1.468.78 2-.48.532-.78 1.229-.78 2v2c0 1.654 1.346 3 3 3h20 16c1.654 0 3-1.346 3-3v-2c0-.771-.301-1.468-.78-2 .48-.532.78-1.229.78-2v-2c0-.771-.301-1.468-.78-2 .48-.532.78-1.229.78-2v-2c0-.771-.301-1.468-.78-2 .48-.532.78-1.229.78-2v-2c0-.771-.301-1.468-.78-2 .48-.532.78-1.229.78-2v-2c0-1.654-1.346-3-3-3h-5.138c5.066-3.349 8.138-8.975 8.138-15.165zm-24 26.165v-2c0-.552.449-1 1-1h1v2h2v-2h2v2h2v-2h2v2h2v-2h2v2h2v-2h2v2h2v-2h1c.551 0 1 .448 1 1v2c0 .552-.449 1-1 1h-14-2-4c-.551 0-1-.448-1-1zm22 4v2c0 .552-.449 1-1 1h-13.184c.112-.314.184-.648.184-1v-2c0-.352-.072-.686-.184-1h2.184v2h2v-2h2v2h2v-2h2v2h2v-2h1c.551 0 1 .448 1 1zm0 6v2c0 .552-.449 1-1 1h-13.184c.112-.314.184-.648.184-1v-2c0-.352-.072-.686-.184-1h2.184v2h2v-2h2v2h2v-2h2v2h2v-2h1c.551 0 1 .448 1 1zm-37 3c-.551 0-1-.448-1-1v-2c0-.552.449-1 1-1h1v2h2v-2h2v2h2v-2h2v2h2v-2h2v2h2v-2h2v2h2v-2h1c.551 0 1 .448 1 1v2c0 .552-.449 1-1 1zm-21-25c0-8.271 6.729-15 15-15s15 6.729 15 15-6.729 15-15 15-15-6.729-15-15zm22 15.474v1.526h2v-2h2v2h2v-2h2v2h2v-2h2v2h2v-2h1 1v2h2v-2h1c.551 0 1 .448 1 1v2c0 .552-.449 1-1 1h-20c-.551 0-1-.448-1-1v-1.753c.688-.212 1.352-.478 2-.773zm-1 15.526c-.551 0-1-.448-1-1v-2c0-.552.449-1 1-1h1v2h2v-2h2v2h2v-2h2v2h2v-2h2v2h2v-2h2v2h2v-2h1c.551 0 1 .448 1 1v2c0 .552-.449 1-1 1zm37-1c0 .552-.449 1-1 1h-13.184c.112-.314.184-.648.184-1v-2c0-.352-.072-.686-.184-1h2.184v2h2v-2h2v2h2v-2h2v2h2v-2h1c.551 0 1 .448 1 1zm0-26v2c0 .552-.449 1-1 1h-20c-.551 0-1-.448-1-1v-2c0-.552.449-1 1-1h1v2h2v-2h2v2h2v-2h1.78.22v2h2v-2h2v2h2v-2h2v2h2v-2h1c.551 0 1 .448 1 1zm-8.961-3.665c-.87.435-1.844.665-2.819.665h-.44c-.975 0-1.95-.23-2.82-.666-5.527-2.763-8.96-8.319-8.96-14.499v-10.835h5.395c1.11 0 2.185-.326 3.109-.941 2.076-1.385 4.915-1.385 6.993 0 .924.616 1.999.941 3.108.941h5.395v10.835c0 6.18-3.434 11.736-8.961 14.5z" data-original="#000000" class="" style="fill:#000000" data-old_color="#000000"/><path d="m47 20.586-3.293-3.293-1.414 1.414 4.707 4.707 8.707-8.707-1.414-1.414z" data-original="#000000" class="" style="fill:#000000" data-old_color="#000000"/></g></g></g> </svg>
