<?xml version="1.0"?>
<svg xmlns="http://www.w3.org/2000/svg" id="Layer_5" enable-background="new 0 0 64 64" height="512px" viewBox="0 0 64 64" width="512px" class=""><g><g><g><g><path d="m2 48h14v14h-14z" fill="#ff826e" data-original="#FF826E" class="" style="fill:#035AA6" data-old_color="#ff826e"/></g><g><path d="m16 48h4v14h-4z" fill="#e6e9ed" data-original="#E6E9ED" style="fill:#E6E9ED" class=""/></g><g><path d="m20 48h4v14h-4z" fill="#ff826e" data-original="#FF826E" class="" style="fill:#035AA6" data-old_color="#ff826e"/></g><g><path d="m14 7 7 12h-4v24h-6v-24h-4z" fill="#ffeaa7" data-original="#FFEAA7" class="active-path" style="fill:#FCD770" data-old_color="#ffeaa7"/></g><g><path d="m55 13v7h-6v-7c0-2.76-2.24-5-5-5-1.38 0-2.63.56-3.54 1.46-.9.91-1.46 2.16-1.46 3.54v7h-6v-7c0-3.04 1.23-5.79 3.22-7.78s4.74-3.22 7.78-3.22c6.08 0 11 4.92 11 11z" fill="#aab2bd" data-original="#AAB2BD" class="" style="fill:#035AA6" data-old_color="#aab2bd"/></g><g><path d="m58 22v24.05c-.76.13-1.44.54-1.91 1.17l-2.09 2.78h-6c0-1.1-.9-2-2-2h-13.18c-.99 0-1.96.24-2.82.71v-.01-26.7c0-1.1.9-2 2-2h1 6 10 6 1c1.1 0 2 .9 2 2z" fill="#b4dd7f" data-original="#B4DD7F" class="" style="fill:#B4DD7F" data-old_color="#b4dd7f"/></g><g><circle cx="44" cy="34" fill="#fcd770" r="10" data-original="#FCD770" class="" style="fill:#FCD770"/></g><g><path d="m58.96 46c1.68 0 3.04 1.36 3.04 3.04 0 .63-.19 1.23-.55 1.75l-4.06 5.8c-1.5 2.14-3.94 3.41-6.56 3.41h-26.83v-10h4l1.49-.99c.17-.11.34-.21.51-.3.86-.47 1.83-.71 2.82-.71h13.18c1.1 0 2 .9 2 2s-.45 2.1-1.17 2.83c-.73.72-1.73 1.17-2.83 1.17h5c1.26 0 2.44-.59 3.2-1.6l1.8-2.4 2.09-2.78c.47-.63 1.15-1.04 1.91-1.17.17-.03.34-.05.52-.05z" fill="#f0d0b4" data-original="#F0D0B4" class="" style="fill:#F0D0B4"/></g></g><g><path d="m43 37c-.551 0-1-.448-1-1h-2c0 1.654 1.346 3 3 3v2h2v-2h3v-3c0-1.654-1.346-3-3-3h-2c-.551 0-1-.448-1-1v-1h3c.551 0 1 .448 1 1h2c0-1.654-1.346-3-3-3v-2h-2v2h-3v3c0 1.654 1.346 3 3 3h2c.551 0 1 .448 1 1v1z" data-original="#000000" class="" style="fill:#000000" data-old_color="#000000"/><path d="m44 45c6.065 0 11-4.935 11-11s-4.935-11-11-11-11 4.935-11 11 4.935 11 11 11zm0-20c4.962 0 9 4.037 9 9s-4.038 9-9 9-9-4.037-9-9 4.038-9 9-9z" data-original="#000000" class="" style="fill:#000000" data-old_color="#000000"/><path d="m53 22h2v2h-2z" data-original="#000000" class="" style="fill:#000000" data-old_color="#000000"/><path d="m33 23h2v2h-2z" data-original="#000000" class="" style="fill:#000000" data-old_color="#000000"/><path d="m33 43h2v2h-2z" data-original="#000000" class="" style="fill:#000000" data-old_color="#000000"/><path d="m53 43h2v2h-2z" data-original="#000000" class="" style="fill:#000000" data-old_color="#000000"/><path d="m10 37h2v-19h-3.259l5.259-9.016 5.259 9.016h-3.259v17h2v-15h4.741l-8.741-14.984-8.741 14.984h4.741z" data-original="#000000" class="" style="fill:#000000" data-old_color="#000000"/><path d="m10 39h2v2h-2z" data-original="#000000" class="" style="fill:#000000" data-old_color="#000000"/><path d="m16 37h2v2h-2z" data-original="#000000" class="" style="fill:#000000" data-old_color="#000000"/><path d="m16 41h2v2h-2z" data-original="#000000" class="" style="fill:#000000" data-old_color="#000000"/><path d="m59 45.004v-23.004c0-1.654-1.346-3-3-3v-6c0-6.617-5.383-12-12-12s-12 5.383-12 12v6c-1.654 0-3 1.346-3 3v26.138c-.021.014-.045.023-.066.038l-1.237.824h-2.697v-2h-24v16h24v-2h25.835c2.934 0 5.69-1.435 7.373-3.839l4.061-5.802c.478-.682.731-1.484.731-2.318 0-2.214-1.791-4.014-4-4.037zm-25-32.004c0-5.514 4.486-10 10-10s10 4.486 10 10v6h-4v-6c0-3.309-2.691-6-6-6s-6 2.691-6 6v6h-4zm14 6h-8v-6c0-2.206 1.794-4 4-4s4 1.794 4 4zm-17 3c0-.552.449-1 1-1h24c.551 0 1 .448 1 1v23.325c-.668.274-1.271.703-1.712 1.292l-1.788 2.383h-4.685c-.414-1.161-1.514-2-2.816-2h-13.183c-.62 0-1.227.093-1.816.252zm17.899 29h3.101l-.6.8c-.563.752-1.461 1.2-2.4 1.2h-1.023c.451-.597.775-1.271.922-2zm-45.899-2h12v12h-12zm20 12h-2v-8h-2v8h-2v-12h2v2h2v-2h2zm37.631-10.788-4.062 5.803c-1.308 1.869-3.452 2.985-5.734 2.985h-25.835v-8h3.303l1.74-1.16c.824-.55 1.783-.84 2.773-.84h13.184c.551 0 1 .448 1 1 0 .802-.313 1.557-.88 2.124-.56.559-1.302.868-2.093.876h-2.027v.002l-4.34-.001c-.001 0-.003 0-.005 0-1.335 0-2.59.521-3.535 1.465l-.827.827 1.414 1.414.827-.827c.567-.566 1.32-.879 2.122-.879h.002l6.337.002h.002c.01 0 .02-.003.03-.003h4.973c1.565 0 3.061-.747 4-2l3.887-5.183c.384-.511.995-.817 1.634-.817h.438c1.125 0 2.041.916 2.041 2.041 0 .421-.127.826-.369 1.171z" data-original="#000000" class="" style="fill:#000000" data-old_color="#000000"/></g></g></g> </svg>
